<?xml version="1.0" encoding="utf-8"?>
<!-- Generator: Adobe Illustrator 23.0.1, SVG Export Plug-In . SVG Version: 6.00 Build 0)  -->
<svg version="1.1" id="Layer_1" xmlns="http://www.w3.org/2000/svg" xmlns:xlink="http://www.w3.org/1999/xlink" x="0px" y="0px"
	 viewBox="0 0 100 100" style="enable-background:new 0 0 100 100;" xml:space="preserve">
<title>Bookmark 4.3</title>
<desc>Created with Sketch.</desc>
<g>
	<path d="M42.5,93.8H7.6l0,0c-1.4,0-2.6,1.1-2.6,2.5c0,0.6,0.2,1.3,0.8,1.8c0.4,0.5,1.1,0.8,1.8,0.8h34.9c0,0,0,0,0.1,0
		c1.4,0,2.6-1.1,2.6-2.5c0-0.6-0.2-1.3-0.8-1.8C44,94.1,43.3,93.8,42.5,93.8z"/>
	<path d="M93.2,75.7c-2.1-1.3-4.3-2.3-6.7-3.4c-1.2-0.5-2.4-1.1-3.6-1.6c-2.9-1.4-6.6-3.4-9.2-6.7c-2.8-3.5-4.2-7.8-4.4-13.4
		c0-0.3,0-0.8-0.1-1.2l19.1-18.9c1-1,1-2.6,0-3.7l-25.4-25c-1-1-2.4-1-3.6-0.1l-20,19.8c-0.1,0-0.2,0-0.3,0
		c-10.3,0-15.7,5.1-20.9,10l-0.3,0.3c-4.4,4.4-8.9,9-12.9,13l-2.7,2.7c-1.4,1.4-1.4,2.7,0,4.1l45.3,41.4c4,3.6,7.8,6.1,13.4,6.1
		h35.5c0.3,0,1.4,0,2.1-0.8c0.6-0.6,0.6-1.5,0.6-2.1V85.4C99.1,81.6,97.1,78.3,93.2,75.7z M27.1,53.1L27.1,53.1L14.9,41.9l1.4-1.5
		l7.1,6.1C26.1,48.9,27.1,51.5,27.1,53.1z M64.5,82.7c-4.2-0.1-7.6-2.5-10-4.7L42.8,67.3c2.8-7.1,2.3-17.4-5.3-24.3L24.8,32.1
		c3.1-2.8,6.6-4.5,10.6-5.3c-1.1,6,0.8,12.2,5.1,17.3c5.5,6.5,14.1,9.9,23.8,9.1c0.1,1,0.2,2.1,0.4,3l-5.2,1.8
		c-0.6,0.2-1.2,0.6-1.5,1.3c-0.3,0.6-0.3,1.4-0.1,2.1c0.2,0.6,0.8,1.2,1.4,1.4c0.6,0.3,1.4,0.3,1.9,0l5-1.7c0.4,1.1,1,2.2,1.6,3.2
		l-4.1,1.5c-0.6,0.2-1.2,0.6-1.6,1.3c-0.3,0.6-0.4,1.4-0.2,2.1c0.2,0.6,0.8,1.2,1.5,1.5c0.6,0.3,1.4,0.3,2.1,0l5.7-2.1
		c3.1,3.2,6.8,5.2,9.6,6.6c1.3,0.6,2.6,1.2,3.9,1.7c2.2,1,4.3,1.8,5.8,2.9c1.4,0.9,2.3,1.7,2.8,2.6H64.5V82.7z M63.1,48.2
		c-7.7,0.4-14.3-2.1-18.5-7c-3.4-3.9-4.9-9.2-4-13.7L61.1,7.2l21.7,21.5L63.1,48.2z M34,46.9c5,4.5,5.8,11.5,4.5,16.7l-7.1-6.5
		c0.5-1.1,1-2.4,0.9-4c0-3.2-1.9-6.5-6-10c-1.9-1.6-4-3.4-6-5.1l-0.9-0.8c0.5-0.5,1.1-1.1,1.5-1.5L34,46.9z M11.2,45.6L51,81.9
		c5.4,4.9,9.1,6,13.4,6h29.3v5.8h-33c-4.1,0-6.5-1.5-10-4.7L7.4,49.5L11.2,45.6z"/>
</g>
</svg>
