<?xml version="1.0" encoding="utf-8"?>
<!-- Generator: Adobe Illustrator 23.0.1, SVG Export Plug-In . SVG Version: 6.00 Build 0)  -->
<svg version="1.1" id="Layer_1" xmlns="http://www.w3.org/2000/svg" xmlns:xlink="http://www.w3.org/1999/xlink" x="0px" y="0px"
	 viewBox="0 0 100 100" style="enable-background:new 0 0 100 100;" xml:space="preserve">
<title>Bookmark 4.3</title>
<desc>Created with Sketch.</desc>
<g>
	<path d="M22.8,51.1c-1.3-0.1-2.5,0.9-2.6,2.3c-0.1,1.3,0.9,2.5,2.3,2.6c0.1,0,0.2,0,0.3,0c3.3,0,6,2.7,6,6c0,1.3,1.1,2.4,2.4,2.4
		c1.3,0,2.4-1.1,2.4-2.4C33.6,56,28.8,51.1,22.8,51.1z"/>
	<path d="M77.3,51.1c-1.3-0.1-2.5,0.9-2.6,2.3c-0.1,1.3,0.9,2.5,2.3,2.6c0.1,0,0.2,0,0.3,0c3.3,0,6,2.7,6,6
		c-0.1,1.3,0.9,2.5,2.3,2.6c1.3,0.1,2.5-0.9,2.6-2.3c0-0.1,0-0.2,0-0.3C88.1,56,83.2,51.1,77.3,51.1z"/>
	<path d="M97.2,53.5l-0.1-0.2c-0.2-0.4-0.4-0.8-0.5-1.1L83.8,25.6c-3-7.5-11.5-11.2-19-8.2c-4.2,1.7-7.5,5.3-8.7,9.7
		c-3.6-2.6-8.5-2.7-12.1-0.1c-2.2-7.8-10.3-12.3-18.1-10.1c-4.4,1.2-8,4.4-9.6,8.7L3.5,52.1c-0.2,0.4-0.4,0.8-0.6,1.2l-0.1,0.2
		c-4.7,11,0.4,23.7,11.4,28.4c11,4.7,23.7-0.4,28.4-11.4c1.2-2.7,1.8-5.6,1.8-8.5V59c1.6,1.2,3.5,1.8,5.5,1.8c2,0,4-0.6,5.6-1.8v3
		c0,12,9.8,21.6,21.7,21.6s21.6-9.8,21.6-21.7C98.8,59,98.3,56.1,97.2,53.5z M20.6,27.6c0,0,0-0.1,0-0.1c0,0,0,0,0-0.1
		c1.5-3.7,5.1-6.2,9.1-6.2c5.4,0,9.8,4.4,9.8,9.8v3.3c0,0.4-0.1,0.8-0.1,1.2c0,0.2,0,0.4,0.1,0.6v12.3c-6.3-7.8-17.1-10.3-26.1-6
		L20.6,27.6z M37.7,69.8c-2.9,5.5-8.6,9-14.9,9h0C13.5,78.8,6,71.2,6,62c0-2.3,0.5-4.5,1.4-6.6l0.6-1.2c4.3-8.2,14.5-11.4,22.7-7.1
		C38.8,51.4,42,61.5,37.7,69.8z M50,56c-2.5,0-4.6-2.1-4.6-4.6c0-2.5,2.1-4.6,4.6-4.6s4.6,2.1,4.6,4.6C54.6,53.9,52.5,56,50,56z
		 M55.5,43.8c-1.6-1.2-3.6-1.8-5.6-1.8v0c-2,0-3.9,0.6-5.5,1.8v-9.1c0.4-3,3.3-5.1,6.3-4.7c2.7,0.4,4.8,2.8,4.7,5.5V43.8z M60.4,31
		c0-5.4,4.4-9.8,9.8-9.8c4,0,7.7,2.4,9.1,6.2c0,0,0,0,0,0.1c0,0,0,0.1,0.1,0.1l7.1,14.8c-9-4.3-19.8-1.8-26.1,6V31z M83.8,77.5
		c-2.1,0.9-4.3,1.3-6.6,1.3c-9.3,0-16.8-7.6-16.8-16.8c0-9.3,7.6-16.8,16.8-16.8c6.3,0,12,3.5,14.9,9l0.6,1.2
		C96.3,63.9,92.3,73.8,83.8,77.5z"/>
</g>
</svg>
