<?xml version="1.0" encoding="utf-8"?>
<!-- Generator: Adobe Illustrator 23.0.1, SVG Export Plug-In . SVG Version: 6.00 Build 0)  -->
<svg version="1.1" id="Layer_1" xmlns="http://www.w3.org/2000/svg" xmlns:xlink="http://www.w3.org/1999/xlink" x="0px" y="0px"
	 viewBox="0 0 100 100" style="enable-background:new 0 0 100 100;" xml:space="preserve">
<title>Bookmark 4.3</title>
<desc>Created with Sketch.</desc>
<path d="M78,50.3L59.2,31.5c-1.3-1.3-3.4-1.3-4.6,0c-1.3,1.3-1.3,3.4,0,4.6l13.2,13.2H23.8c-1.8,0-3.3,1.5-3.3,3.3
	c0,1.8,1.5,3.3,3.3,3.3h44L54.6,69.2c-1.3,1.3-1.3,3.4,0,4.6c0.6,0.6,1.5,1,2.3,1c0.9,0,1.7-0.3,2.3-1l18.8-18.8
	c0.6-0.6,1-1.5,1-2.3C79,51.8,78.6,50.9,78,50.3z"/>
</svg>
