<?xml version="1.0" encoding="utf-8"?>
<!-- Generator: Adobe Illustrator 23.0.1, SVG Export Plug-In . SVG Version: 6.00 Build 0)  -->
<svg version="1.1" id="Layer_1" xmlns="http://www.w3.org/2000/svg" xmlns:xlink="http://www.w3.org/1999/xlink" x="0px" y="0px"
	 viewBox="0 0 100 100" style="enable-background:new 0 0 100 100;" xml:space="preserve">
<title>Bookmark 4.3</title>
<desc>Created with Sketch.</desc>
<path d="M95.8,7.8L95.8,7.8L95.8,7.8c0.5,0.6,0.8,1.2,0.8,1.9v80.2c0,1.6-1.3,2.9-2.9,2.9H67.7c-1.6,0-2.9-1.3-2.9-2.9V78.2V52.7
	v-2.9c0-4.1-1.7-7.7-4.3-10.4c-2.7-2.7-6.4-4.3-10.5-4.3c-4.1,0-7.8,1.7-10.4,4.3c-2.7,2.7-4.3,6.4-4.3,10.4v2.9v25.5v11.7
	c0,1.6-1.3,2.9-2.9,2.9H6.3c-1.6,0-2.9-1.3-2.9-2.9V78.2V52.7v-43c0-0.7,0.3-1.4,0.7-1.9l0,0l0,0c0.5-0.6,1.3-0.9,2.1-0.9h87.4
	C94.6,6.9,95.3,7.2,95.8,7.8L95.8,7.8z M70.5,75.4h20.3V55.6H70.5V75.4L70.5,75.4z M90.9,81.1H70.5v6h20.3V81.1L90.9,81.1z
	 M9.1,75.4h20.3V55.6H9.1V75.4L9.1,75.4z M29.5,81.1H9.1v6h20.3V81.1L29.5,81.1z M70.5,49.9h20.3V26.7H9.1v23.1h20.3v0
	c0-5.6,2.3-10.8,6-14.5c3.7-3.7,8.9-6,14.5-6c5.7,0,10.8,2.3,14.5,6C68.2,39.1,70.5,44.2,70.5,49.9L70.5,49.9L70.5,49.9z M90.9,12.6
	H9.1V21h81.7V12.6L90.9,12.6z"/>
</svg>
