<?xml version="1.0" encoding="utf-8"?>
<!-- Generator: Adobe Illustrator 23.0.1, SVG Export Plug-In . SVG Version: 6.00 Build 0)  -->
<svg version="1.1" id="Layer_1" xmlns="http://www.w3.org/2000/svg" xmlns:xlink="http://www.w3.org/1999/xlink" x="0px" y="0px"
	 viewBox="0 0 100 100" style="enable-background:new 0 0 100 100;" xml:space="preserve">
<style type="text/css">
	.st0{fill:none;}
</style>
<title>Bookmark 4.3</title>
<desc>Created with Sketch.</desc>
<g>
	<g>
		<polygon class="st0" points="80,19.9 69.4,19.9 69.4,26.8 62.4,26.8 62.4,19.9 37.6,19.9 37.6,26.8 30.6,26.8 30.6,19.9 20,19.9 
			20,31 80,31 		"/>
		<path class="st0" d="M80,37.4H20v45.3H80L80,37.4L80,37.4z M33.3,71.6c-2.1,0-3.8-1.7-3.8-3.8c0-2.1,1.7-3.8,3.8-3.8
			c2.1,0,3.8,1.7,3.8,3.8C37.1,69.9,35.4,71.6,33.3,71.6z M33.3,55.1c-2.1,0-3.8-1.7-3.8-3.8c0-2.1,1.7-3.8,3.8-3.8
			c2.1,0,3.8,1.7,3.8,3.8C37.1,53.4,35.4,55.1,33.3,55.1z M50,71.6c-2.1,0-3.8-1.7-3.8-3.8c0-2.1,1.7-3.8,3.8-3.8
			c2.1,0,3.8,1.7,3.8,3.8C53.8,69.9,52.1,71.6,50,71.6z M50,55.1c-2.1,0-3.8-1.7-3.8-3.8c0-2.1,1.7-3.8,3.8-3.8
			c2.1,0,3.8,1.7,3.8,3.8C53.8,53.4,52.1,55.1,50,55.1z M66.7,71.6c-2.1,0-3.8-1.7-3.8-3.8c0-2.1,1.7-3.8,3.8-3.8
			c2.1,0,3.8,1.7,3.8,3.8C70.5,69.9,68.8,71.6,66.7,71.6z M66.7,55.1c-2.1,0-3.8-1.7-3.8-3.8c0-2.1,1.7-3.8,3.8-3.8
			c2.1,0,3.8,1.7,3.8,3.8C70.5,53.4,68.8,55.1,66.7,55.1z"/>
		<path d="M33.3,47.5c-2.1,0-3.8,1.7-3.8,3.8c0,2.1,1.7,3.8,3.8,3.8c2.1,0,3.8-1.7,3.8-3.8C37.1,49.2,35.4,47.5,33.3,47.5z"/>
		<path d="M66.7,47.5c-2.1,0-3.8,1.7-3.8,3.8c0,2.1,1.7,3.8,3.8,3.8c2.1,0,3.8-1.7,3.8-3.8C70.5,49.2,68.8,47.5,66.7,47.5z"/>
		<path d="M50,47.5c-2.1,0-3.8,1.7-3.8,3.8c0,2.1,1.7,3.8,3.8,3.8c2.1,0,3.8-1.7,3.8-3.8C53.8,49.2,52.1,47.5,50,47.5z"/>
		<path d="M33.3,64c-2.1,0-3.8,1.7-3.8,3.8c0,2.1,1.7,3.8,3.8,3.8c2.1,0,3.8-1.7,3.8-3.8S35.4,64,33.3,64z"/>
		<path d="M66.7,64c-2.1,0-3.8,1.7-3.8,3.8c0,2.1,1.7,3.8,3.8,3.8c2.1,0,3.8-1.7,3.8-3.8C70.5,65.7,68.8,64,66.7,64z"/>
		<path d="M50,64c-2.1,0-3.8,1.7-3.8,3.8c0,2.1,1.7,3.8,3.8,3.8c2.1,0,3.8-1.7,3.8-3.8S52.1,64,50,64z"/>
		<path d="M13.7,89.1h72.7V13.5H69.4V8.4h-7v5.1H37.6V8.4h-7v5.1H13.7V89.1z M20,19.9h10.5v6.9h7v-6.9h24.9v6.9h7v-6.9H80V31H20
			V19.9z M20,37.4H80v45.3H20V37.4z"/>
	</g>
</g>
</svg>
