<?xml version="1.0" encoding="utf-8"?>
<!-- Generator: Adobe Illustrator 23.0.1, SVG Export Plug-In . SVG Version: 6.00 Build 0)  -->
<svg version="1.1" id="Layer_1" xmlns="http://www.w3.org/2000/svg" xmlns:xlink="http://www.w3.org/1999/xlink" x="0px" y="0px"
	 viewBox="0 0 100 100" style="enable-background:new 0 0 100 100;" xml:space="preserve">
<title>Bookmark 4.3</title>
<desc>Created with Sketch.</desc>
<g>
	<path d="M69.9,95.1c-9.3,0-39.1-7.1-51.1-32.9c-5-10.8-7.4-21.3-7-31.2c0.4-8.6,2.7-14,3.5-15.5C18,9.9,27,3.9,32.7,5.1l0,0
		c0.9,0.2,3.3,0.7,7.2,8.1c0.8,1.6,3.5,6.9,3.4,9.7c-0.2,4.5-6.6,8.6-9.5,10.3c-0.5,0.4-1,0.9-1.2,1.2c0.1,2.4,3.3,15,8.5,22.1
		c5.4,7.4,16.2,12.4,18.8,13.2c0.8-0.5,2.3-1.7,3.1-2.4c1.3-1.1,2.1-1.7,2.8-2c4.3-1.9,14.7,2.2,18.8,5c0.9,0.6,3.8,2.6,3.7,5.5
		c-0.2,4-9.8,18.3-17,19.1C70.9,95,70.4,95.1,69.9,95.1z M31,10.9c-2.5,0-8.5,3.5-10.4,7.3c-0.8,1.7-7.8,17,3.6,41.5
		c12,25.8,43.3,29.8,46.4,29.4c3.2-0.4,10.2-9.7,11.5-13c-2.2-2.1-11.3-5.6-13.9-5.2c-0.3,0.2-0.9,0.8-1.4,1.1
		c-2.8,2.4-4.9,3.9-7,3.9c-2.6-0.1-16.8-6.3-23.6-15.8c-5.9-8.1-9.8-22.5-9.6-26.1c0.1-2.9,3-5.1,3.8-5.7l0.2-0.2
		c3.1-1.8,6.3-4.4,6.6-5.5c-0.2-2.1-4.2-10.1-6.1-11.6C31.1,10.9,31,10.9,31,10.9z M31,10.8L31,10.8L31,10.8z"/>
</g>
</svg>
