<?xml version="1.0" encoding="utf-8"?>
<!-- Generator: Adobe Illustrator 23.0.1, SVG Export Plug-In . SVG Version: 6.00 Build 0)  -->
<svg version="1.1" id="Layer_1" xmlns="http://www.w3.org/2000/svg" xmlns:xlink="http://www.w3.org/1999/xlink" x="0px" y="0px"
	 viewBox="0 0 100 100" style="enable-background:new 0 0 100 100;" xml:space="preserve">
<title>Bookmark 4.3</title>
<desc>Created with Sketch.</desc>
<g>
	<path d="M65.3,58.9H33c-0.9,0-1.7,0.8-1.7,1.7s0.8,1.7,1.7,1.7h32.2c0.9,0,1.7-0.8,1.7-1.7S66.2,58.9,65.3,58.9z"/>
	<path d="M94.5,41.7l-15.9-1.3c-0.4,0-0.9-0.2-1.2-0.6L65.9,26.7c-1-1.1-2.4-1.7-3.8-1.7H29.5c-1.5,0-2.8,0.6-3.8,1.7L14,39.9
		c-0.3,0.3-0.6,0.5-1,0.5l-7.7,1.1c-2.5,0.4-4.4,2.5-4.4,5.1v10.6c0,2.8,2.3,5.1,5.1,5.1h1.7h0.1c0.9,6.5,7,11,13.4,10.1
		s11-7,10.1-13.4c-0.9-6.5-7-11-13.4-10.1c-5.2,0.8-9.3,4.8-10.1,10.1H7.6H5.9c-0.9,0-1.7-0.8-1.7-1.7V46.6c0-0.9,0.6-1.6,1.5-1.7
		l7.7-1.1c0.3,0,0.6-0.1,0.8-0.2h0.2h56c0.7,0,1.3-0.4,1.6-1.1c0.3-0.6,0.1-1.4-0.4-1.8l-3.4-3.4c-0.7-0.7-1.7-0.7-2.4,0
		c-0.7,0.7-0.7,1.7,0,2.4l0.5,0.5H50V28.4h12c0.5,0,0.9,0.2,1.3,0.6L75,42.1c0.9,1,2.1,1.6,3.4,1.7l15.9,1.3
		c0.9,0.1,1.5,0.8,1.5,1.7V47h-3.4c-0.9,0-1.7,0.8-1.7,1.7v6.8c0,0.9,0.8,1.7,1.7,1.7h3.4c0,0.9-0.8,1.7-1.7,1.7h-1.7
		c-0.9,0-1.7,0.8-1.7,1.7s0.8,1.7,1.7,1.7h1.7c2.8,0,5.1-2.3,5.1-5.1V46.8C99.2,44.1,97.1,41.9,94.5,41.7z M19.5,52.1
		c4.7,0,8.5,3.8,8.5,8.5s-3.8,8.5-8.5,8.5S11,65.3,11,60.6S14.8,52.1,19.5,52.1z M28,29.2v11h-9.8L28,29.2z M46.6,40.3H31.3V28.4
		h15.3V40.3z M94.1,53.8v-3.4h1.7v3.4H94.1z"/>
	<path d="M78.8,48.7c-6.6,0-11.9,5.3-11.9,11.9s5.3,11.9,11.9,11.9s11.9-5.3,11.9-11.9S85.4,48.7,78.8,48.7z M78.8,69.1
		c-4.7,0-8.5-3.8-8.5-8.5s3.8-8.5,8.5-8.5s8.5,3.8,8.5,8.5S83.5,69.1,78.8,69.1z"/>
	<path d="M78.8,55.5c-2.8,0-5.1,2.3-5.1,5.1s2.3,5.1,5.1,5.1s5.1-2.3,5.1-5.1S81.6,55.5,78.8,55.5z M78.8,62.3
		c-0.9,0-1.7-0.8-1.7-1.7s0.8-1.7,1.7-1.7s1.7,0.8,1.7,1.7S79.8,62.3,78.8,62.3z"/>
	<path d="M19.5,65.7c2.8,0,5.1-2.3,5.1-5.1s-2.3-5.1-5.1-5.1s-5.1,2.3-5.1,5.1S16.7,65.7,19.5,65.7z M19.5,58.9
		c0.9,0,1.7,0.8,1.7,1.7s-0.8,1.7-1.7,1.7s-1.7-0.8-1.7-1.7S18.5,58.9,19.5,58.9z"/>
	<path d="M55.1,45.4H50c-0.9,0-1.7,0.8-1.7,1.7s0.8,1.7,1.7,1.7h5.1c0.9,0,1.7-0.8,1.7-1.7S56,45.4,55.1,45.4z"/>
	<path d="M34.7,45.4h-5.1c-0.9,0-1.7,0.8-1.7,1.7s0.8,1.7,1.7,1.7h5.1c0.9,0,1.7-0.8,1.7-1.7S35.7,45.4,34.7,45.4z"/>
</g>
</svg>
