<?xml version="1.0" encoding="utf-8"?>
<!-- Generator: Adobe Illustrator 23.0.1, SVG Export Plug-In . SVG Version: 6.00 Build 0)  -->
<svg version="1.1" id="Layer_1" xmlns="http://www.w3.org/2000/svg" xmlns:xlink="http://www.w3.org/1999/xlink" x="0px" y="0px"
	 viewBox="0 0 100 100" style="enable-background:new 0 0 100 100;" xml:space="preserve">
<title>Bookmark 4.3</title>
<desc>Created with Sketch.</desc>
<path d="M67.7,85.1c-1,0-2-0.2-3-0.6c-1.7-0.7-3.4-1.7-4.9-2.9c-1.9-1.4-3.7-2.9-5.5-4.4c-1.8-1.4-3.6-2.9-5.4-4.3
	c-0.2-0.1-0.4-0.2-0.6-0.2c-2.3-0.1-4.7,0-7,0h-3.6C23.5,73,11.2,62.6,9.1,48.4c-1.3-7.5,0.4-15.2,4.8-21.4
	c4.3-6.3,10.9-10.5,18.3-11.9c1.4-0.2,2.7-0.3,4.1-0.3h0.2c6.3,0,12,0,14.8,0c4.5,0,9.1,0,13.7,0H65c0.4,0,0.8,0,1.1,0.1
	c6.6,0.7,12.7,3.7,17.2,8.5c4.6,4.8,7.4,11,7.9,17.5c0.5,5.9-0.7,11.8-3.5,17c-2.9,5-7.2,9.1-12.3,11.7c0.1,2,0,4.1-0.1,6.1
	c-0.1,1.4-0.3,2.7-0.8,4c-0.6,2-2.1,3.7-4,4.7C69.7,84.9,68.7,85.1,67.7,85.1z M43.6,66.8c1.7,0,3.3,0,5,0.1l0,0
	c1.4,0,2.8,0.5,4,1.3l0.1,0c1.8,1.4,3.7,2.9,5.5,4.4c1.8,1.4,3.6,2.9,5.4,4.3c1,0.8,2.1,1.5,3.4,2c0.4,0.2,0.8,0.2,1.2,0.1
	c0.4-0.3,0.7-0.7,0.8-1.2c0.3-0.8,0.4-1.6,0.5-2.4c0.1-1.9,0.1-3.9,0-5.9c-0.2-2.1,1-4.1,3-5c9-4.6,13.7-13,13-23.1
	c-0.8-10.5-9.5-19.6-19.7-20.5l0,0l-0.7-0.1c-4.5,0-9.1,0-13.6,0c-2.8,0-8.4,0-14.7,0c-2.1,0.1-3,0.2-3.2,0.2l0,0
	c-12,2.1-20.4,14.1-18.3,26.3C17,59,26.1,66.7,37.8,66.8c1.2,0,2.4,0,3.5,0L43.6,66.8z"/>
</svg>
