<?xml version="1.0" encoding="utf-8"?>
<!-- Generator: Adobe Illustrator 23.0.1, SVG Export Plug-In . SVG Version: 6.00 Build 0)  -->
<svg version="1.1" id="Layer_1" xmlns="http://www.w3.org/2000/svg" xmlns:xlink="http://www.w3.org/1999/xlink" x="0px" y="0px"
	 viewBox="0 0 100 100" style="enable-background:new 0 0 100 100;" xml:space="preserve">
<title>Bookmark 4.3</title>
<desc>Created with Sketch.</desc>
<path d="M45,50L12,17c-1.4-1.4-1.4-3.6,0-5c1.4-1.4,3.6-1.4,5,0l33,33l33-33c1.4-1.4,3.6-1.4,5,0c1.4,1.4,1.4,3.6,0,5l-33,33l33,33
	c1.4,1.4,1.4,3.6,0,5c-1.4,1.4-3.6,1.4-5,0L50,55l-33,33c-1.4,1.4-3.6,1.4-5,0c-1.4-1.4-1.4-3.6,0-5L45,50z"/>
</svg>
