<?xml version="1.0" encoding="UTF-8"?>
<svg width="27px" height="27px" viewBox="0 0 27 27" version="1.1" xmlns="http://www.w3.org/2000/svg" xmlns:xlink="http://www.w3.org/1999/xlink">
    <!-- Generator: Sketch 54.1 (76490) - https://sketchapp.com -->
    <title>Money</title>
    <desc>Created with Sketch.</desc>
    <g id="Money" stroke="none" stroke-width="1" fill="none" fill-rule="evenodd">
        <g id="baseline-credit_card-24px">
            <polygon id="Path" points="0 0 27 0 27 27 0 27"></polygon>
            <path d="M22.7,5 L4.3,5 C3.0235,5 2.0115,6.00125 2.0115,7.25 L2,20.75 C2,21.99875 3.0235,23 4.3,23 L22.7,23 C23.9765,23 25,21.99875 25,20.75 L25,7.25 C25,6.00125 23.9765,5 22.7,5 Z M22.7,20.75 L4.3,20.75 L4.3,14 L22.7,14 L22.7,20.75 Z M22.7,9.5 L4.3,9.5 L4.3,7.25 L22.7,7.25 L22.7,9.5 Z" id="Shape" fill="#000000" fill-rule="nonzero"></path>
        </g>
    </g>
</svg>