<?xml version="1.0" encoding="utf-8"?>
<!-- Generator: Adobe Illustrator 23.0.1, SVG Export Plug-In . SVG Version: 6.00 Build 0)  -->
<svg version="1.1" id="Layer_1" xmlns="http://www.w3.org/2000/svg" xmlns:xlink="http://www.w3.org/1999/xlink" x="0px" y="0px"
	 viewBox="0 0 100 100" style="enable-background:new 0 0 100 100;" xml:space="preserve">
<title>Bookmark 4.3</title>
<desc>Created with Sketch.</desc>
<path d="M24,89.9c2.9,0,5.7-0.9,8-2.6c1.4-1.1,3.2-1.7,5-1.7c1.8-0.1,3.7,0.5,5.1,1.6c4.8,3.4,11.2,3.4,15.9,0c3-2.3,7.1-2.3,10.1,0
	c4.8,3.5,11.2,3.5,16,0c1.4-1.1,3.2-1.7,5-1.7v-5.3c-2.9,0-5.7,0.9-8,2.6c-1.4,1.1-3.2,1.7-5,1.7h-0.4l6.2-24.6l-9-6.4V29.1H58.4
	V7.6H41.7v21.5H27.2v24.4l-9.1,6.4l6.2,24.6h-0.4c-1.8,0-3.6-0.5-5-1.7c-2.3-1.7-5.1-2.6-8-2.6v5.3c1.8,0,3.6,0.5,5,1.7
	C18.2,89,21.1,89.9,24,89.9z M47.4,84.1c-0.8-0.3-1.7-0.8-2.4-1.3c-2.3-1.7-5.1-2.6-8-2.6c-2.7,0-5.4,0.8-7.6,2.4l-2.9-11.3
	l20.9-14.9V84.1z M70.7,82.6c-2.2-1.6-4.9-2.4-7.7-2.4c-2.9,0-5.7,0.9-8,2.6c-0.7,0.5-1.5,1-2.4,1.3V56.4l20.9,14.9L70.7,82.6z
	 M75.9,62.2L75,65.8L52.7,50v-4.2L75.9,62.2z M47,12.9h6v3.3h-6V12.9z M47,21.5h6v7.6h-6V21.5z M32.5,34.4h35v15.3L50,37.3
	L32.5,49.7V34.4z M24.2,62.1l23.2-16.4V50L25.1,65.7L24.2,62.1z"/>
</svg>
