<?xml version="1.0" encoding="utf-8"?>
<!-- Generator: Adobe Illustrator 23.0.1, SVG Export Plug-In . SVG Version: 6.00 Build 0)  -->
<svg version="1.1" id="Layer_1" xmlns="http://www.w3.org/2000/svg" xmlns:xlink="http://www.w3.org/1999/xlink" x="0px" y="0px"
	 viewBox="0 0 100 100" style="enable-background:new 0 0 100 100;" xml:space="preserve">
<title>Bookmark 4.3</title>
<desc>Created with Sketch.</desc>
<g>
	<path d="M45.6,22.5C34.7,24,25.4,31.6,21.4,42.3c-0.4,1.1,0.1,2.4,1.3,2.8c0.3,0.1,0.5,0.1,0.8,0.1c0.9,0,1.7-0.5,2-1.4
		c3.4-9.2,11.4-15.7,20.8-17c1.2-0.2,2-1.3,1.8-2.5C47.9,23.1,46.8,22.3,45.6,22.5z"/>
	<path d="M95.5,59.7H89h-2.2H58.7H15.3H4.5c-1.2,0-2.2,1-2.2,2.2c0,15.7,8.8,26.9,9.1,27.3c0.4,0.5,1,0.8,1.7,0.8
		c0.2,0,4.4,0,13.2-2.2h4.1v0c0.9,0.2,2.2,0.4,4,0.6c0.5,0.1,11.1,1.6,15.5,1.6c7,0,10.2-2.1,10.6-2.3c2-1.3,5.2-3.4,7.2-4.7
		l16.5-10.6c2.1-1.4,5.3-3.9,7.1-5.6l0.3-0.3c0.9-0.9,1.3-1.7,1.5-2.4h2.2c1.2,0,2.2-1,2.2-2.2S96.7,59.7,95.5,59.7z M73.3,64.1
		l-6,3c0-1-0.3-2.1-0.8-3H73.3z M14.2,85.7c-1.8-2.6-6.9-10.8-7.5-21.6h6.5c0.4,5.5,2.4,12.9,8.8,20.4
		C18.1,85.3,15.6,85.6,14.2,85.7z M82,68.8L65.5,79.4c-2,1.3-5.3,3.4-7.3,4.7c0,0-2.6,1.6-8.2,1.6c-4.1,0-14.8-1.5-14.9-1.5
		c-2.2-0.3-4-0.6-4.2-0.6c-0.1,0-0.2,0-0.3,0h-3.4c-5.8-6-8.9-12.5-9.5-19.5h41c3,0,4.3,1.6,4.3,3.2s-1.3,3.2-4.3,3.2H41.3
		c-1.2,0-2.2,1-2.2,2.2c0,1.2,1,2.2,2.2,2.2h17.3c2.7,0,4.8-0.9,6.3-2.2c0.4,0,14.7-6.9,14.7-6.9c1.8-0.9,3-1.7,5.1-1.7H88
		C86.4,65.6,83.7,67.7,82,68.8z"/>
	<path d="M8.8,55.4h82.3c1.2,0,2.2-1,2.2-2.2s-1-2.2-2.2-2.2h-2.3C87.8,32,73.1,16.6,54.3,14.5c0-0.1,0-0.2,0-0.3
		c0-2.4-1.9-4.3-4.3-4.3s-4.3,1.9-4.3,4.3c0,0.1,0,0.2,0,0.3C26.9,16.6,12.2,32,11.1,51.1H8.8c-1.2,0-2.2,1-2.2,2.2
		S7.6,55.4,8.8,55.4z M50,18.6c18.4,0,33.4,14.4,34.5,32.5H15.5C16.6,33,31.6,18.6,50,18.6z"/>
</g>
</svg>
