<?xml version="1.0" encoding="utf-8"?>
<!-- Generator: Adobe Illustrator 23.0.1, SVG Export Plug-In . SVG Version: 6.00 Build 0)  -->
<svg version="1.1" id="Layer_1" xmlns="http://www.w3.org/2000/svg" xmlns:xlink="http://www.w3.org/1999/xlink" x="0px" y="0px"
	 viewBox="0 0 100 100" style="enable-background:new 0 0 100 100;" xml:space="preserve">
<title>Bookmark 4.3</title>
<desc>Created with Sketch.</desc>
<path d="M96.8,39.1c0-11-9-19.9-19.9-19.9h-54C11.9,19.1,3,28.1,3,39.1v27.1c0,11,9,19.9,19.9,19.9h53.9c11,0,19.9-9,19.9-19.9V39.1
	H96.8z M76.9,25.2c1.9,0,3.6,0.5,5.3,1.3L49.8,49.1L17.4,26.5c1.7-0.7,3.4-1.1,5.3-1.1h54.2V25.2z M90.7,66.5
	c0,7.6-6,13.5-13.7,13.5H22.8c-7.6,0-13.5-5.9-13.5-13.5V39.4c0-3.3,1.1-6.5,3.1-8.9l35.9,24.9l0,0c0.1,0.1,0.2,0.2,0.4,0.2h0.1
	c0.1,0,0.2,0.1,0.3,0.1h0.1c0.1,0,0.2,0,0.3,0.1h0.1c0.1,0,0.2,0.1,0.4,0.1l0,0l0,0l0,0l0,0c0.1,0,0.2,0,0.4,0h0.1
	c0.1,0,0.2,0,0.3-0.1H51c0.1,0,0.2-0.1,0.3-0.1h0.1c0.1-0.1,0.2-0.1,0.4-0.2l0,0l35.9-24.9c2,2.4,3.1,5.5,3.1,8.9v27H90.7z"/>
</svg>
