<?xml version="1.0" encoding="utf-8"?>
<!-- Generator: Adobe Illustrator 23.0.1, SVG Export Plug-In . SVG Version: 6.00 Build 0)  -->
<svg version="1.1" id="Layer_1" xmlns="http://www.w3.org/2000/svg" xmlns:xlink="http://www.w3.org/1999/xlink" x="0px" y="0px"
	 viewBox="0 0 100 100" style="enable-background:new 0 0 100 100;" xml:space="preserve">
<title>Bookmark 4.3</title>
<desc>Created with Sketch.</desc>
<path d="M99.1,63.7c0-0.1,0-0.3-0.1-0.4c0-0.1-0.1-0.3-0.2-0.4c0-0.1-0.1-0.2-0.1-0.2L86.4,46.1V23.4c0-3.5-2.9-6.4-6.4-6.4H54.3
	H20.2c-3.5,0-6.4,2.9-6.4,6.4v22.8L1.4,62.6c-0.1,0.1-0.1,0.2-0.1,0.2c-0.1,0.1-0.1,0.3-0.2,0.4C1,63.4,1,63.5,1,63.7
	c0,0.1,0,0.2,0,0.2v19.2c0,1.2,1,2.1,2.1,2.1h6.4c0.8,0,1.5-0.5,1.9-1.2l3.7-7.4h70l3.7,7.4c0.4,0.7,1.1,1.2,1.9,1.2H97
	c1.2,0,2.1-1,2.1-2.1V63.9C99.2,63.8,99.1,63.8,99.1,63.7z M18,23.4c0-1.2,1-2.1,2.1-2.1h25.6h34.2c1.2,0,2.1,1,2.1,2.1v21.4h-2.1
	V31.9c0-1.2-1-2.1-2.1-2.1H54.3c-1.2,0-2.1,1-2.1,2.1v12.8h-4.3V31.9c0-1.2-1-2.1-2.1-2.1H22.3c-1.2,0-2.1,1-2.1,2.1v12.8H18V23.4z
	 M75.7,34V49H56.5V34H75.7z M43.6,34V49H24.4V34H43.6z M17,49h3.2v2.1c0,1.2,1,2.1,2.1,2.1h23.5c1.2,0,2.1-1,2.1-2.1V49h4.3v2.1
	c0,1.2,1,2.1,2.1,2.1h23.5c1.2,0,2.1-1,2.1-2.1V49h3.2l9.6,12.8H7.3L17,49z M94.9,81h-3l-3.7-7.4c-0.4-0.7-1.1-1.2-1.9-1.2H13.7
	c-0.8,0-1.5,0.5-1.9,1.2L8.2,81h-3V66.1h89.7V81z"/>
</svg>
