<svg id="Layer_1" data-name="Layer 1" xmlns="http://www.w3.org/2000/svg" viewBox="0 0 41.19 34.62">
  <title>icon-burger-menu</title>
  <g>
    <path d="M14.39,13.34H49.61a3,3,0,0,1,3,3h0a3,3,0,0,1-3,3H14.39a3,3,0,0,1-3-3h0A3,3,0,0,1,14.39,13.34Z" transform="translate(-11.41 -13.34)" style="fill: #010101"/>
    <path d="M14.39,27.67H49.61a3,3,0,0,1,3,3h0a3,3,0,0,1-3,3H14.39a3,3,0,0,1-3-3h0A3,3,0,0,1,14.39,27.67Z" transform="translate(-11.41 -13.34)" style="fill: #010101"/>
    <path d="M14.39,42H49.61a3,3,0,0,1,3,3h0a3,3,0,0,1-3,3H14.39a3,3,0,0,1-3-3h0A3,3,0,0,1,14.39,42Z" transform="translate(-11.41 -13.34)" style="fill: #010101"/>
  </g>
</svg>
