<?xml version="1.0" encoding="utf-8"?>
<!-- Generator: Adobe Illustrator 23.0.1, SVG Export Plug-In . SVG Version: 6.00 Build 0)  -->
<svg version="1.1" id="Layer_1" xmlns="http://www.w3.org/2000/svg" xmlns:xlink="http://www.w3.org/1999/xlink" x="0px" y="0px"
	 viewBox="0 0 100 100" style="enable-background:new 0 0 100 100;" xml:space="preserve">
<title>Bookmark 4.3</title>
<desc>Created with Sketch.</desc>
<g>
	<path d="M89.3,38.8c-1.2-21.3-18.4-38-39.3-38s-38.2,16.8-39.3,38c-0.5,9.6,2.4,19,8.2,26.7l21.8,29.1c3.8,5.1,11.1,6.2,16.2,2.3
		c0.9-0.7,1.7-1.4,2.3-2.3l21.8-29.1C86.9,57.8,89.8,48.4,89.3,38.8z M76.9,62.4L55.2,91.5c-2.1,2.8-6.2,3.4-9,1.3
		c-0.5-0.4-0.9-0.8-1.3-1.3L23.1,62.4c-5.1-6.6-7.6-14.9-7.2-23.2C16.7,22.8,29.8,5.9,50,5.9s33.3,16.9,34.2,33.3
		C84.6,47.5,82,55.7,76.9,62.4z"/>
	<path d="M49.6,19.8c-10.9-0.1-19.8,8.7-19.8,19.6c-0.1,10.9,8.7,19.8,19.6,19.8c10.9,0.1,19.8-8.7,19.8-19.6c0,0,0-0.1,0-0.1
		C69.2,28.7,60.5,19.9,49.6,19.8z M64,39.6c0,8-6.4,14.5-14.4,14.6c-8,0.1-14.6-6.4-14.7-14.4S41.3,25.1,49.4,25S64,31.4,64,39.4
		C64,39.5,64,39.5,64,39.6z"/>
</g>
</svg>
