<?xml version="1.0" encoding="UTF-8"?>
<svg width="34px" height="34px" viewBox="0 0 34 34" version="1.1" xmlns="http://www.w3.org/2000/svg" xmlns:xlink="http://www.w3.org/1999/xlink">
    <!-- Generator: Sketch 54.1 (76490) - https://sketchapp.com -->
    <title>neighborhood</title>
    <desc>Created with Sketch.</desc>
    <g id="neighborhood" stroke="none" stroke-width="1" fill="none" fill-rule="evenodd">
        <g id="baseline-location_city-24px">
            <path d="M21.25,15.5833333 L21.25,7.08333333 L17,2.83333333 L12.75,7.08333333 L12.75,9.91666667 L4.25,9.91666667 L4.25,29.75 L29.75,29.75 L29.75,15.5833333 L21.25,15.5833333 Z M9.91666667,26.9166667 L7.08333333,26.9166667 L7.08333333,24.0833333 L9.91666667,24.0833333 L9.91666667,26.9166667 Z M9.91666667,21.25 L7.08333333,21.25 L7.08333333,18.4166667 L9.91666667,18.4166667 L9.91666667,21.25 Z M9.91666667,15.5833333 L7.08333333,15.5833333 L7.08333333,12.75 L9.91666667,12.75 L9.91666667,15.5833333 Z M18.4166667,26.9166667 L15.5833333,26.9166667 L15.5833333,24.0833333 L18.4166667,24.0833333 L18.4166667,26.9166667 Z M18.4166667,21.25 L15.5833333,21.25 L15.5833333,18.4166667 L18.4166667,18.4166667 L18.4166667,21.25 Z M18.4166667,15.5833333 L15.5833333,15.5833333 L15.5833333,12.75 L18.4166667,12.75 L18.4166667,15.5833333 Z M18.4166667,9.91666667 L15.5833333,9.91666667 L15.5833333,7.08333333 L18.4166667,7.08333333 L18.4166667,9.91666667 Z M26.9166667,26.9166667 L24.0833333,26.9166667 L24.0833333,24.0833333 L26.9166667,24.0833333 L26.9166667,26.9166667 Z M26.9166667,21.25 L24.0833333,21.25 L24.0833333,18.4166667 L26.9166667,18.4166667 L26.9166667,21.25 Z" id="Shape" fill="#000000" fill-rule="nonzero"></path>
            <polygon id="Path" points="0 0 34 0 34 34 0 34"></polygon>
        </g>
    </g>
</svg>