<?xml version="1.0" encoding="utf-8"?>
<!-- Generator: Adobe Illustrator 23.0.1, SVG Export Plug-In . SVG Version: 6.00 Build 0)  -->
<svg version="1.1" id="Layer_1" xmlns="http://www.w3.org/2000/svg" xmlns:xlink="http://www.w3.org/1999/xlink" x="0px" y="0px"
	 viewBox="0 0 100 100" style="enable-background:new 0 0 100 100;" xml:space="preserve">
<title>Bookmark 4.3</title>
<desc>Created with Sketch.</desc>
<path d="M33,2.4c-1.6,0-2.7,0-2.7,0l1.1,5.4c0,0,2.7-0.5,5.9,1.1c1.6,0.5,3.8,2.2,4.9,4.3H12c-1.6,0-2.7,1.1-2.7,2.7
	c0,0.5,0,1.1,0.5,1.6l37.3,48.6v25.9H30.9c-1.6,0-2.7,1.1-2.7,2.7c0,1.6,1.1,2.7,2.7,2.7l0,0h37.8c1.6,0,2.7-1.1,2.7-2.7
	c0-1.6-1.1-2.7-2.7-2.7l0,0H52.5V66.1l37.3-48.6c1.1-1.1,0.5-2.7-0.5-3.8c-0.5-0.5-1.1-0.5-1.6-0.5H48.1c-2.2-4.9-5.4-8.1-8.6-9.7
	C37.3,2.4,34.6,2.4,33,2.4z M17.4,18.6h26.5v0.5c-4.3,1.1-7.6,5.4-7.6,10.3H25.5L17.4,18.6z M49.2,18.6h32.9L74,29.4H57.9
	C57.9,24.6,54.1,20.2,49.2,18.6L49.2,18.6z M47.1,24c3.2,0,5.4,2.2,5.4,5.4s-2.2,5.4-5.4,5.4c-3.2,0-5.4-2.2-5.4-5.4
	S43.8,24,47.1,24z M29.8,34.8h8.1c1.6,3.2,5.4,5.4,9.2,5.4c3.8,0,7.6-2.2,9.2-5.4h13.5l-20,25.9L29.8,34.8z"/>
</svg>
