<?xml version="1.0" encoding="utf-8"?>
<!-- Generator: Adobe Illustrator 23.0.1, SVG Export Plug-In . SVG Version: 6.00 Build 0)  -->
<svg version="1.1" id="Layer_1" xmlns="http://www.w3.org/2000/svg" xmlns:xlink="http://www.w3.org/1999/xlink" x="0px" y="0px"
	 viewBox="0 0 100 100" style="enable-background:new 0 0 100 100;" xml:space="preserve">
<title>Bookmark 4.3</title>
<desc>Created with Sketch.</desc>
<path d="M12.9,96.8h4.4V62.7H8.5V39.2c0.1-4.8,4-8.6,8.8-8.5h13.2c4.8-0.1,8.7,3.7,8.8,8.5v23.5h-8.8v34.2H35V67.1h4.4v19.8
	c0,2.4,1.6,4.5,3.8,5.2v4.7h4.4v-4.4h11.6v4.4h37.5V70.4h-8.8v-3.7c0-2.2-1.9-4-4.1-4h-6.9v-2.2c0-3-2.5-5.5-5.5-5.5h-4.4V45
	c0.1-2.4-1.8-4.3-4.2-4.4h-9.3c-2.4,0.1-4.2,2-4.2,4.4V55h-4.4c-0.4,0-0.7,0-1.1,0.1V39.2c-0.1-6.1-4.4-11.3-10.3-12.6
	c5.1-5.3,4.9-13.6-0.4-18.7S19.5,3,14.4,8.3c-4.9,5.1-4.9,13.2,0,18.3c-6,1.3-10.2,6.5-10.3,12.6v27.9h8.8V96.8z M83.5,67.1v3.3h-11
	v-3.3H83.5z M53.7,45h8.8V55h-8.8V45z M43.8,67.1v-6.6c0-0.6,0.5-1.1,1.1-1.1h26.5c0.6,0,1.1,0.5,1.1,1.1v2.2h-0.3
	c-2.2,0-4.1,1.8-4.1,4v3.7h-8.8v9.9h4.4v-5.5h28.7v17.6H63.6v-7.7h-4.4V88H44.9c-0.6,0-1.1-0.5-1.1-1.1V67.1z M23.9,8.7
	c4.9,0,8.8,3.9,8.8,8.8s-3.9,8.8-8.8,8.8s-8.8-3.9-8.8-8.8S19.1,8.7,23.9,8.7z"/>
<rect x="49.3" y="64.9" width="4.4" height="18.7"/>
</svg>
