<?xml version="1.0" encoding="utf-8"?>
<!-- Generator: Adobe Illustrator 23.0.1, SVG Export Plug-In . SVG Version: 6.00 Build 0)  -->
<svg version="1.1" id="Layer_1" xmlns="http://www.w3.org/2000/svg" xmlns:xlink="http://www.w3.org/1999/xlink" x="0px" y="0px"
	 viewBox="0 0 100 100" style="enable-background:new 0 0 100 100;" xml:space="preserve">
<title>Bookmark 4.3</title>
<desc>Created with Sketch.</desc>
<g>
	<g>
		<path d="M30.8,11.9c-1.1,0-2,0.9-2,2V81c0,1.1,0.7,1.4,1.6,0.7l18.1-15c0.9-0.7,2.3-0.7,3.1,0l18.1,15c0.9,0.7,1.6,0.4,1.6-0.7
			V13.9c0-1.1-0.9-2-2-2H30.8z M25.9,93.4c-1.7,1.4-3.1,0.8-3.1-1.5v-82c0-2.2,1.8-4,4-4h46.3c2.2,0,4,1.8,4,4v82
			c0,2.2-1.4,2.9-3.1,1.5L51.5,74.6c-0.9-0.7-2.2-0.7-3.1,0L25.9,93.4z M49.1,47.7l-3,1.6c-0.5,0.2-0.8,0-0.7-0.5l0.6-3.4
			c0.1-0.5-0.2-1.3-0.5-1.7l-2.5-2.4c-0.4-0.4-0.3-0.8,0.3-0.8l3.4-0.5c0.5-0.1,1.2-0.5,1.4-1l1.5-3.1c0.2-0.5,0.6-0.5,0.9,0
			l1.5,3.1c0.2,0.5,0.9,1,1.4,1l3.4,0.5c0.5,0.1,0.7,0.5,0.3,0.8l-2.5,2.4c-0.4,0.4-0.6,1.1-0.5,1.7l0.6,3.4
			c0.1,0.5-0.2,0.8-0.7,0.5l-3-1.6C50.4,47.5,49.6,47.5,49.1,47.7z M41,57l7.3-3.8c1-0.5,2.6-0.5,3.6,0L59,57c1,0.5,1.6,0,1.4-1.1
			l-1.4-8.1c-0.2-1.1,0.3-2.6,1.1-3.4l5.9-5.7c0.8-0.8,0.6-1.5-0.6-1.7l-8.1-1.2c-1.1-0.2-2.4-1.1-2.9-2.1l-3.6-7.3
			c-0.5-1-1.3-1-1.8,0l-3.6,7.3c-0.5,1-1.8,1.9-2.9,2.1L34.5,37c-1.1,0.2-1.4,0.9-0.6,1.7l5.9,5.7c0.8,0.8,1.3,2.3,1.1,3.4l-1.4,8.1
			C39.3,57,40,57.5,41,57z"/>
	</g>
</g>
</svg>
