<svg id="Layer_1" data-name="Layer 1" xmlns="http://www.w3.org/2000/svg" viewBox="0 0 24 24">
  <title>person</title>
  <g id="Page-1">
    <g id="action">
      <g id="ic_face_24px" data-name="ic face 24px">
        <g id="Group">
          <polygon id="Shape" points="0 0 24 0 24 24 0 24 0 0" style="fill: none"/>
          <path id="Shape-2" data-name="Shape" d="M7,9.75A1.25,1.25,0,1,0,8.25,11,1.25,1.25,0,0,0,7,9.75Zm6,0A1.25,1.25,0,1,0,14.25,11,1.25,1.25,0,0,0,13,9.75ZM10,0A10,10,0,1,0,20,10,10,10,0,0,0,10,0Zm0,18a8,8,0,0,1-8-8,8.11,8.11,0,0,1,.05-.86A10.06,10.06,0,0,0,7.26,3.77,10,10,0,0,0,15.42,8a9.76,9.76,0,0,0,2.25-.26A8,8,0,0,1,10,18Z" transform="translate(2 2)"/>
        </g>
      </g>
    </g>
  </g>
</svg>
