<?xml version="1.0" encoding="utf-8"?>
<!-- Generator: Adobe Illustrator 23.0.1, SVG Export Plug-In . SVG Version: 6.00 Build 0)  -->
<svg version="1.1" id="Layer_1" xmlns="http://www.w3.org/2000/svg" xmlns:xlink="http://www.w3.org/1999/xlink" x="0px" y="0px"
	 viewBox="0 0 100 100" style="enable-background:new 0 0 100 100;" xml:space="preserve">
<title>Bookmark 4.3</title>
<desc>Created with Sketch.</desc>
<path d="M80,33.3c-0.1-1.6-1.4-2.8-3-2.8H67v-6c0-9.4-7.6-17-17-17s-17,7.6-17,17v6H23c-1.6,0-2.9,1.2-3,2.8l-4,56
	c0,0.1,0,0.1,0,0.2c0,1.7,1.4,3,3,3h62c0.1,0,0.1,0,0.2,0c1.7-0.1,2.9-1.5,2.8-3.2L80,33.3z M39,24.5c0-6.1,4.9-11,11-11
	s11,4.9,11,11v6H39V24.5z M22.2,86.5l3.6-50H33v12c0,1.7,1.3,3,3,3s3-1.3,3-3v-12h22v12c0,1.7,1.3,3,3,3c1.7,0,3-1.3,3-3v-12h7.2
	l3.6,50H22.2z"/>
</svg>
