<?xml version="1.0" encoding="utf-8"?>
<!-- Generator: Adobe Illustrator 23.0.1, SVG Export Plug-In . SVG Version: 6.00 Build 0)  -->
<svg version="1.1" id="Layer_1" xmlns="http://www.w3.org/2000/svg" xmlns:xlink="http://www.w3.org/1999/xlink" x="0px" y="0px"
	 viewBox="0 0 100 100" style="enable-background:new 0 0 100 100;" xml:space="preserve">
<title>Bookmark 4.3</title>
<desc>Created with Sketch.</desc>
<path d="M89.4,50h-9.1c-4.9,0-9.6,1.1-13.8,3c0.4-2.7,0.7-5.4,0.7-8.1c0-13.8-5.3-26.7-15.1-36.4c-0.6-0.6-1.3-0.9-2.1-0.9
	s-1.6,0.3-2.1,0.9C36.1,20.3,30.8,36.8,33.5,53c-4.2-1.9-8.8-3-13.7-3h-9.1c-1.7,0-3,1.4-3,3v6.1c0,18.4,14.9,33.3,33.3,33.3H50h9.1
	c18.4,0,33.3-14.9,33.3-33.3V53C92.4,51.4,91,50,89.4,50z M50,15.1c7.2,8.3,11.1,18.7,11.1,29.8c0,4.2-0.7,8.5-1.9,12.6
	c-4,3.2-7.1,7.3-9.3,12c-2.1-4.7-5.3-8.8-9.3-12C36.4,42.6,39.9,26.7,50,15.1z M13.7,59.1v-3h6.1c15,0,27.3,12.2,27.3,27.3v3h-6.1
	C25.9,86.3,13.7,74.1,13.7,59.1z M86.3,59.1c0,15-12.2,27.3-27.3,27.3H53v-3c0-15,12.2-27.3,27.3-27.3h6.1V59.1z"/>
</svg>
