<?xml version="1.0" encoding="utf-8"?>
<!-- Generator: Adobe Illustrator 23.0.1, SVG Export Plug-In . SVG Version: 6.00 Build 0)  -->
<svg version="1.1" id="Layer_1" xmlns="http://www.w3.org/2000/svg" xmlns:xlink="http://www.w3.org/1999/xlink" x="0px" y="0px"
	 viewBox="0 0 100 100" style="enable-background:new 0 0 100 100;" xml:space="preserve">
<title>Bookmark 4.3</title>
<desc>Created with Sketch.</desc>
<g>
	<path d="M97.3,65.5l-3.6-10.6L91.9,55c-2,0.2-3.8-1.1-4.5-2.9l-0.2-0.5c-0.6-1.9,0.1-3.9,1.8-5l1.6-1L87,35
		c-0.3-0.9-0.8-1.8-1.4-2.5c0.1-0.6,0.1-1.3,0-1.9c-0.2-2.3-1.3-4.3-3.1-5.8L74,17.6l-1.5,1.1c-1.6,1.2-3.8,1.1-5.3-0.1l-0.4-0.3
		c-1.5-1.3-2-3.4-1.1-5.2l0.8-1.7l-8.6-7.1c-3.6-3-9-2.5-12,1.1L39,13.7l0.5,5.8c0,0.2-0.2,0.5-0.4,0.5l-5.8,0.5L4.2,55.8
		c-3,3.6-2.5,9,1.1,12l8.6,7.1l1.5-1c0.6-0.4,1.4-0.6,2.2-0.7c0.4,0.4,0.7,1,0.9,1.5l0.2,0.5c0.6,1.8,0,3.8-1.6,4.9l-1.4,1.1
		l3.6,10.6c1.2,3.5,4.4,5.8,8.1,5.8c0.9,0,1.8-0.2,2.7-0.4l43.4-14.6l2.6-5.2c0.1-0.1,0.2-0.2,0.3-0.2c0.1,0,0.2-0.1,0.4,0l5.2,2.6
		L92,76.4C96.4,74.9,98.8,70,97.3,65.5z M82.2,74.5l-3.4-1.7c-0.9-0.5-2-0.6-3-0.5c0.6-0.6,0.9-1.6,0.6-2.5l-1.5-4.6
		c-0.4-1.3-1.8-2-3.1-1.5c-1.3,0.4-2,1.8-1.5,3.1l1.5,4.6c0.3,0.9,1.1,1.5,2,1.6c-0.9,0.5-1.6,1.3-2.1,2.2l-1.7,3.4l-29,9.8
		c0.5-0.4,0.9-0.8,1.3-1.2L50.6,77l13.8-4.6l-1.6-4.6l-6.3,2.1L67,57.2l1.1,3.2c0.3,1,1.3,1.7,2.3,1.7c0.3,0,0.5,0,0.8-0.1
		c1.3-0.4,2-1.8,1.5-3.1l-1.5-4.6c-0.1-0.4-0.4-0.8-0.8-1.1l1-1.2l-0.5-5.8c0-0.2,0-0.3,0.1-0.3c0.1-0.1,0.2-0.2,0.3-0.2l5.8-0.5
		l5.9-7.2l1.9,5.8c-2.5,2.5-3.3,6.1-2.2,9.4l0.2,0.5c1.1,3.3,4,5.7,7.5,6.2l2.4,7.2C93,68,93,69,92.5,69.9c-0.4,0.9-1.2,1.5-2.1,1.9
		L82.2,74.5z M22.2,81.8l8,6.6c1.5,1.2,3.3,1.9,5.3,2l-6.9,2.3c-0.9,0.3-1.9,0.2-2.8-0.2c-0.9-0.4-1.5-1.2-1.9-2.1l-2.5-7.4
		C21.6,82.5,21.9,82.2,22.2,81.8z M49.5,28.2c0.9-1,0.7-2.6-0.3-3.4l-3.7-3.1c-0.4-0.3-0.9-0.5-1.4-0.5c0.2-0.7,0.3-1.4,0.2-2.1
		L44,15.2l5.5-6.7C50.8,7,53.2,6.7,54.7,8l5.8,4.8c-0.8,3.4,0.4,7,3.1,9.2l0.4,0.3c2.7,2.2,6.4,2.7,9.6,1.3l5.9,4.9
		c0.8,0.6,1.2,1.5,1.3,2.5c0.1,1-0.2,1.9-0.8,2.7l-5.5,6.7l-3.8,0.4c-1.1,0.1-2,0.5-2.8,1.2c0.2-0.9-0.1-1.8-0.8-2.4l-3.7-3.1
		c-1-0.9-2.6-0.7-3.4,0.3c-0.9,1-0.7,2.6,0.3,3.4l3.7,3.1v0c0.4,0.4,1,0.6,1.5,0.6c0.3,0,0.7-0.1,1-0.2c-0.5,0.9-0.7,1.9-0.6,3
		l0.4,3.8L38.4,84.1c-0.6,0.8-1.5,1.2-2.5,1.3c-1,0.1-1.9-0.2-2.7-0.8l-6.1-5c0.6-3.3-0.6-6.6-3.2-8.8l-0.4-0.3
		c-2.6-2.1-6.1-2.7-9.2-1.5l-6-4.9c-1.6-1.3-1.8-3.6-0.5-5.2l27.9-33.7l3.8-0.4c0.7-0.1,1.4-0.3,2.1-0.6c0.1,0.5,0.4,0.9,0.8,1.3
		l3.7,3.1C47.1,29.3,48.7,29.2,49.5,28.2z"/>
	<path d="M55.1,35.9L55.1,35.9c0.4,0.4,1,0.6,1.5,0.6c0.7,0,1.4-0.3,1.9-0.9c0.9-1,0.7-2.6-0.3-3.4l-3.7-3.1c-1-0.9-2.6-0.7-3.4,0.3
		c-0.9,1-0.7,2.6,0.3,3.4L55.1,35.9z"/>
	<rect x="17.7" y="42.9" transform="matrix(0.6369 -0.7709 0.7709 0.6369 -23.2658 41.3529)" width="29" height="4.9"/>
	<rect x="27.7" y="54.5" transform="matrix(0.6371 -0.7708 0.7708 0.6371 -31.0781 47.8042)" width="15.1" height="4.9"/>
	<rect x="32.6" y="55.2" transform="matrix(0.637 -0.7708 0.7708 0.637 -27.335 57.2344)" width="29" height="4.9"/>
</g>
</svg>
